<svg xmlns="http://www.w3.org/2000/svg" xmlns:xlink="http://www.w3.org/1999/xlink" width="500" zoomAndPan="magnify" viewBox="0 0 375 374.999991" height="500" preserveAspectRatio="xMidYMid meet" version="1.0"><defs><g/><clipPath id="ff891bb2df"><path d="M 0 131.25 L 375 131.25 L 375 243.75 L 0 243.75 Z M 0 131.25 " clip-rule="nonzero"/></clipPath></defs><g clip-path="url(#ff891bb2df)"><path fill="#000000" d="M -34.246094 131.25 L 401.691406 131.25 L 401.691406 243.75 L -34.246094 243.75 Z M -34.246094 131.25 " fill-opacity="1" fill-rule="nonzero"/></g><g fill="#ffffff" fill-opacity="1"><g transform="translate(46.883199, 204.272978)"><g><path d="M 39.984375 -31.765625 L 24.890625 -16.59375 L 41.484375 0 L 27.359375 0 L 14.671875 -12.6875 L 14.671875 0 L 3.71875 0 L 3.71875 -53.234375 L 14.671875 -53.234375 L 14.671875 -20.671875 L 25.75 -31.765625 Z M 39.984375 -31.765625 "/></g></g></g><g fill="#ffffff" fill-opacity="1"><g transform="translate(81.046417, 204.272978)"><g><path d="M 6.71875 -3.78125 C 3.1875 -6.914062 1.421875 -10.9375 1.421875 -15.84375 C 1.421875 -20.757812 3.253906 -24.796875 6.921875 -27.953125 C 10.597656 -31.109375 15.140625 -32.6875 20.546875 -32.6875 C 25.867188 -32.6875 30.359375 -31.097656 34.015625 -27.921875 C 37.671875 -24.742188 39.5 -20.71875 39.5 -15.84375 C 39.5 -10.976562 37.710938 -6.96875 34.140625 -3.8125 C 30.566406 -0.65625 26.035156 0.921875 20.546875 0.921875 C 14.859375 0.921875 10.25 -0.644531 6.71875 -3.78125 Z M 15.1875 -21.234375 C 13.769531 -19.828125 13.0625 -18.03125 13.0625 -15.84375 C 13.0625 -13.65625 13.738281 -11.867188 15.09375 -10.484375 C 16.457031 -9.109375 18.253906 -8.421875 20.484375 -8.421875 C 22.628906 -8.421875 24.394531 -9.117188 25.78125 -10.515625 C 27.164062 -11.921875 27.859375 -13.695312 27.859375 -15.84375 C 27.859375 -18.03125 27.144531 -19.828125 25.71875 -21.234375 C 24.300781 -22.640625 22.554688 -23.34375 20.484375 -23.34375 C 18.378906 -23.34375 16.613281 -22.640625 15.1875 -21.234375 Z M 15.1875 -21.234375 "/></g></g></g><g fill="#ffffff" fill-opacity="1"><g transform="translate(116.13803, 204.272978)"><g><path d="M 3.71875 0 L 3.71875 -31.765625 L 14.671875 -31.765625 L 14.671875 -28.421875 L 14.796875 -28.421875 C 17.640625 -31.265625 20.671875 -32.6875 23.890625 -32.6875 C 25.460938 -32.6875 27.019531 -32.476562 28.5625 -32.0625 C 30.113281 -31.65625 31.597656 -31.015625 33.015625 -30.140625 C 34.441406 -29.273438 35.597656 -28.046875 36.484375 -26.453125 C 37.378906 -24.867188 37.828125 -23.023438 37.828125 -20.921875 L 37.828125 0 L 26.875 0 L 26.875 -17.953125 C 26.875 -19.597656 26.34375 -21.039062 25.28125 -22.28125 C 24.226562 -23.519531 22.859375 -24.140625 21.171875 -24.140625 C 19.523438 -24.140625 18.03125 -23.5 16.6875 -22.21875 C 15.34375 -20.945312 14.671875 -19.523438 14.671875 -17.953125 L 14.671875 0 Z M 3.71875 0 "/></g></g></g><g fill="#ffffff" fill-opacity="1"><g transform="translate(151.229643, 204.272978)"><g><path d="M 17.515625 -32.6875 C 19.335938 -32.6875 21.132812 -32.476562 22.90625 -32.0625 C 24.675781 -31.65625 26 -31.242188 26.875 -30.828125 L 28.171875 -30.203125 L 24.578125 -23.03125 C 22.097656 -24.351562 19.742188 -25.015625 17.515625 -25.015625 C 16.273438 -25.015625 15.394531 -24.878906 14.875 -24.609375 C 14.363281 -24.335938 14.109375 -23.832031 14.109375 -23.09375 C 14.109375 -22.925781 14.128906 -22.757812 14.171875 -22.59375 C 14.210938 -22.425781 14.296875 -22.269531 14.421875 -22.125 C 14.546875 -21.988281 14.660156 -21.867188 14.765625 -21.765625 C 14.867188 -21.660156 15.039062 -21.546875 15.28125 -21.421875 C 15.53125 -21.296875 15.726562 -21.203125 15.875 -21.140625 C 16.019531 -21.078125 16.257812 -20.984375 16.59375 -20.859375 C 16.925781 -20.734375 17.171875 -20.640625 17.328125 -20.578125 C 17.492188 -20.515625 17.769531 -20.421875 18.15625 -20.296875 C 18.550781 -20.179688 18.851562 -20.101562 19.0625 -20.0625 C 20.34375 -19.6875 21.457031 -19.269531 22.40625 -18.8125 C 23.351562 -18.363281 24.351562 -17.742188 25.40625 -16.953125 C 26.457031 -16.171875 27.269531 -15.179688 27.84375 -13.984375 C 28.425781 -12.796875 28.71875 -11.4375 28.71875 -9.90625 C 28.71875 -2.6875 23.707031 0.921875 13.6875 0.921875 C 11.414062 0.921875 9.253906 0.570312 7.203125 -0.125 C 5.160156 -0.820312 3.6875 -1.523438 2.78125 -2.234375 L 1.421875 -3.34375 L 5.875 -10.828125 C 6.207031 -10.546875 6.640625 -10.207031 7.171875 -9.8125 C 7.710938 -9.414062 8.6875 -8.878906 10.09375 -8.203125 C 11.5 -7.523438 12.71875 -7.1875 13.75 -7.1875 C 16.007812 -7.1875 17.140625 -7.945312 17.140625 -9.46875 C 17.140625 -10.175781 16.851562 -10.722656 16.28125 -11.109375 C 15.707031 -11.503906 14.726562 -11.945312 13.34375 -12.4375 C 11.957031 -12.9375 10.875 -13.394531 10.09375 -13.8125 C 8.113281 -14.84375 6.546875 -16.003906 5.390625 -17.296875 C 4.234375 -18.597656 3.65625 -20.320312 3.65625 -22.46875 C 3.65625 -25.6875 4.898438 -28.191406 7.390625 -29.984375 C 9.890625 -31.785156 13.265625 -32.6875 17.515625 -32.6875 Z M 17.515625 -32.6875 "/></g></g></g><g fill="#ffffff" fill-opacity="1"><g transform="translate(175.861349, 204.272978)"><g><path d="M 14.046875 -31.765625 L 14.046875 -16.65625 C 14.046875 -13.519531 14.519531 -11.289062 15.46875 -9.96875 C 16.425781 -8.644531 18.035156 -7.984375 20.296875 -7.984375 C 22.566406 -7.984375 24.175781 -8.644531 25.125 -9.96875 C 26.082031 -11.289062 26.5625 -13.519531 26.5625 -16.65625 L 26.5625 -31.765625 L 37.515625 -31.765625 L 37.515625 -13.984375 C 37.515625 -8.703125 36.140625 -4.894531 33.390625 -2.5625 C 30.648438 -0.238281 26.285156 0.921875 20.296875 0.921875 C 14.316406 0.921875 9.953125 -0.238281 7.203125 -2.5625 C 4.460938 -4.894531 3.09375 -8.703125 3.09375 -13.984375 L 3.09375 -31.765625 Z M 14.046875 -31.765625 "/></g></g></g><g fill="#ffffff" fill-opacity="1"><g transform="translate(210.643495, 204.272978)"><g><path d="M 3.71875 0 L 3.71875 -31.765625 L 14.671875 -31.765625 L 14.671875 -28.421875 L 14.796875 -28.421875 C 17.640625 -31.265625 20.671875 -32.6875 23.890625 -32.6875 C 26.203125 -32.6875 28.367188 -32.210938 30.390625 -31.265625 C 32.410156 -30.316406 33.941406 -28.851562 34.984375 -26.875 C 38.203125 -30.75 41.707031 -32.6875 45.5 -32.6875 C 48.882812 -32.6875 51.789062 -31.734375 54.21875 -29.828125 C 56.65625 -27.929688 57.875 -24.960938 57.875 -20.921875 L 57.875 0 L 46.921875 0 L 46.921875 -17.953125 C 46.921875 -19.640625 46.457031 -21.050781 45.53125 -22.1875 C 44.601562 -23.320312 43.210938 -23.890625 41.359375 -23.890625 C 39.742188 -23.890625 38.515625 -23.40625 37.671875 -22.4375 C 36.828125 -21.46875 36.363281 -20.300781 36.28125 -18.9375 L 36.28125 0 L 25.3125 0 L 25.3125 -17.953125 C 25.3125 -19.640625 24.847656 -21.050781 23.921875 -22.1875 C 22.992188 -23.320312 21.601562 -23.890625 19.75 -23.890625 C 18.050781 -23.890625 16.78125 -23.363281 15.9375 -22.3125 C 15.09375 -21.257812 14.671875 -20.015625 14.671875 -18.578125 L 14.671875 0 Z M 3.71875 0 "/></g></g></g><g fill="#ffffff" fill-opacity="1"><g transform="translate(265.78843, 204.272978)"><g><path d="M 35.84375 -14.359375 L 12.8125 -14.359375 C 12.8125 -12.128906 13.53125 -10.476562 14.96875 -9.40625 C 16.414062 -8.332031 17.988281 -7.796875 19.6875 -7.796875 C 21.457031 -7.796875 22.859375 -8.03125 23.890625 -8.5 C 24.921875 -8.976562 26.097656 -9.921875 27.421875 -11.328125 L 35.34375 -7.359375 C 32.039062 -1.835938 26.550781 0.921875 18.875 0.921875 C 14.09375 0.921875 9.988281 -0.71875 6.5625 -4 C 3.132812 -7.28125 1.421875 -11.226562 1.421875 -15.84375 C 1.421875 -20.46875 3.132812 -24.429688 6.5625 -27.734375 C 9.988281 -31.035156 14.09375 -32.6875 18.875 -32.6875 C 23.914062 -32.6875 28.015625 -31.226562 31.171875 -28.3125 C 34.328125 -25.40625 35.90625 -21.25 35.90625 -15.84375 C 35.90625 -15.101562 35.882812 -14.609375 35.84375 -14.359375 Z M 13.125 -20.421875 L 25.203125 -20.421875 C 24.953125 -22.078125 24.300781 -23.347656 23.25 -24.234375 C 22.195312 -25.117188 20.84375 -25.5625 19.1875 -25.5625 C 17.375 -25.5625 15.929688 -25.085938 14.859375 -24.140625 C 13.785156 -23.191406 13.207031 -21.953125 13.125 -20.421875 Z M 13.125 -20.421875 "/></g></g></g><g fill="#ffffff" fill-opacity="1"><g transform="translate(297.290256, 204.272978)"><g><path d="M 3.71875 0 L 3.71875 -31.765625 L 14.671875 -31.765625 L 14.671875 -27.171875 L 14.796875 -27.171875 C 14.878906 -27.335938 15.015625 -27.546875 15.203125 -27.796875 C 15.390625 -28.046875 15.789062 -28.476562 16.40625 -29.09375 C 17.019531 -29.71875 17.675781 -30.273438 18.375 -30.765625 C 19.082031 -31.265625 19.992188 -31.707031 21.109375 -32.09375 C 22.222656 -32.488281 23.359375 -32.6875 24.515625 -32.6875 C 25.710938 -32.6875 26.890625 -32.519531 28.046875 -32.1875 C 29.203125 -31.863281 30.046875 -31.535156 30.578125 -31.203125 L 31.453125 -30.703125 L 26.875 -21.421875 C 25.507812 -22.578125 23.609375 -23.15625 21.171875 -23.15625 C 19.847656 -23.15625 18.710938 -22.863281 17.765625 -22.28125 C 16.816406 -21.707031 16.144531 -21.003906 15.75 -20.171875 C 15.363281 -19.347656 15.085938 -18.644531 14.921875 -18.0625 C 14.753906 -17.488281 14.671875 -17.039062 14.671875 -16.71875 L 14.671875 0 Z M 3.71875 0 "/></g></g></g><g fill="#ffffff" fill-opacity="1"><g transform="translate(110.784805, 229.624672)"><g><path d="M 0.671875 -1.34375 C 0.566406 -1.488281 0.515625 -1.632812 0.515625 -1.78125 C 0.515625 -2 0.628906 -2.179688 0.859375 -2.328125 C 0.972656 -2.410156 1.097656 -2.453125 1.234375 -2.453125 C 1.429688 -2.453125 1.613281 -2.367188 1.78125 -2.203125 C 2.101562 -1.828125 2.453125 -1.546875 2.828125 -1.359375 C 3.203125 -1.179688 3.648438 -1.09375 4.171875 -1.09375 C 4.585938 -1.101562 4.953125 -1.195312 5.265625 -1.375 C 5.578125 -1.550781 5.734375 -1.84375 5.734375 -2.25 C 5.734375 -2.625 5.570312 -2.90625 5.25 -3.09375 C 4.9375 -3.289062 4.46875 -3.472656 3.84375 -3.640625 C 3.238281 -3.796875 2.734375 -3.960938 2.328125 -4.140625 C 1.929688 -4.328125 1.59375 -4.59375 1.3125 -4.9375 C 1.03125 -5.28125 0.890625 -5.726562 0.890625 -6.28125 C 0.890625 -6.769531 1.03125 -7.195312 1.3125 -7.5625 C 1.59375 -7.9375 1.960938 -8.226562 2.421875 -8.4375 C 2.878906 -8.644531 3.382812 -8.75 3.9375 -8.75 C 4.457031 -8.75 4.972656 -8.648438 5.484375 -8.453125 C 6.003906 -8.253906 6.425781 -7.953125 6.75 -7.546875 C 6.882812 -7.398438 6.953125 -7.242188 6.953125 -7.078125 C 6.953125 -6.898438 6.863281 -6.734375 6.6875 -6.578125 C 6.582031 -6.472656 6.445312 -6.421875 6.28125 -6.421875 C 6.082031 -6.421875 5.925781 -6.488281 5.8125 -6.625 C 5.582031 -6.882812 5.300781 -7.082031 4.96875 -7.21875 C 4.632812 -7.363281 4.265625 -7.4375 3.859375 -7.4375 C 3.453125 -7.4375 3.101562 -7.351562 2.8125 -7.1875 C 2.519531 -7.019531 2.375 -6.734375 2.375 -6.328125 C 2.382812 -5.953125 2.550781 -5.671875 2.875 -5.484375 C 3.195312 -5.296875 3.691406 -5.113281 4.359375 -4.9375 C 4.929688 -4.789062 5.40625 -4.628906 5.78125 -4.453125 C 6.164062 -4.273438 6.488281 -4.015625 6.75 -3.671875 C 7.007812 -3.335938 7.140625 -2.890625 7.140625 -2.328125 C 7.140625 -1.816406 6.992188 -1.375 6.703125 -1 C 6.410156 -0.625 6.023438 -0.335938 5.546875 -0.140625 C 5.078125 0.0546875 4.578125 0.15625 4.046875 0.15625 C 3.359375 0.15625 2.722656 0.0390625 2.140625 -0.1875 C 1.554688 -0.425781 1.066406 -0.8125 0.671875 -1.34375 Z M 0.671875 -1.34375 "/></g></g></g><g fill="#ffffff" fill-opacity="1"><g transform="translate(129.192439, 229.624672)"><g><path d="M 9.25 -4.28125 C 9.25 -3.425781 9.054688 -2.660156 8.671875 -1.984375 C 8.296875 -1.316406 7.78125 -0.789062 7.125 -0.40625 C 6.46875 -0.03125 5.738281 0.15625 4.9375 0.15625 C 4.144531 0.15625 3.421875 -0.03125 2.765625 -0.40625 C 2.109375 -0.789062 1.585938 -1.316406 1.203125 -1.984375 C 0.828125 -2.660156 0.640625 -3.425781 0.640625 -4.28125 C 0.640625 -5.125 0.828125 -5.890625 1.203125 -6.578125 C 1.585938 -7.265625 2.109375 -7.796875 2.765625 -8.171875 C 3.421875 -8.554688 4.144531 -8.75 4.9375 -8.75 C 5.738281 -8.75 6.46875 -8.554688 7.125 -8.171875 C 7.78125 -7.796875 8.296875 -7.265625 8.671875 -6.578125 C 9.054688 -5.890625 9.25 -5.125 9.25 -4.28125 Z M 7.703125 -4.28125 C 7.703125 -4.863281 7.578125 -5.382812 7.328125 -5.84375 C 7.085938 -6.3125 6.753906 -6.671875 6.328125 -6.921875 C 5.910156 -7.179688 5.445312 -7.3125 4.9375 -7.3125 C 4.425781 -7.3125 3.960938 -7.179688 3.546875 -6.921875 C 3.128906 -6.671875 2.796875 -6.3125 2.546875 -5.84375 C 2.304688 -5.382812 2.1875 -4.863281 2.1875 -4.28125 C 2.1875 -3.695312 2.304688 -3.175781 2.546875 -2.71875 C 2.796875 -2.269531 3.128906 -1.914062 3.546875 -1.65625 C 3.960938 -1.394531 4.425781 -1.265625 4.9375 -1.265625 C 5.445312 -1.265625 5.910156 -1.394531 6.328125 -1.65625 C 6.753906 -1.914062 7.085938 -2.269531 7.328125 -2.71875 C 7.578125 -3.175781 7.703125 -3.695312 7.703125 -4.28125 Z M 7.703125 -4.28125 "/></g></g></g><g fill="#ffffff" fill-opacity="1"><g transform="translate(149.702891, 229.624672)"><g><path d="M 2.84375 -0.78125 C 2.84375 -0.5625 2.765625 -0.375 2.609375 -0.21875 C 2.453125 -0.0703125 2.269531 0 2.0625 0 C 1.84375 0 1.65625 -0.0703125 1.5 -0.21875 C 1.351562 -0.375 1.28125 -0.5625 1.28125 -0.78125 L 1.28125 -11.28125 C 1.28125 -11.5 1.359375 -11.6875 1.515625 -11.84375 C 1.671875 -12 1.859375 -12.078125 2.078125 -12.078125 C 2.285156 -12.078125 2.460938 -12 2.609375 -11.84375 C 2.765625 -11.6875 2.84375 -11.5 2.84375 -11.28125 Z M 2.84375 -0.78125 "/></g></g></g><g fill="#ffffff" fill-opacity="1"><g transform="translate(164.459137, 229.624672)"><g><path d="M 7.515625 -8.546875 C 7.742188 -8.546875 7.929688 -8.46875 8.078125 -8.3125 C 8.222656 -8.164062 8.296875 -7.984375 8.296875 -7.765625 L 8.296875 -3.421875 C 8.296875 -2.296875 7.984375 -1.421875 7.359375 -0.796875 C 6.734375 -0.171875 5.851562 0.140625 4.71875 0.140625 C 3.582031 0.140625 2.703125 -0.171875 2.078125 -0.796875 C 1.460938 -1.421875 1.15625 -2.296875 1.15625 -3.421875 L 1.15625 -7.765625 C 1.15625 -7.984375 1.226562 -8.164062 1.375 -8.3125 C 1.519531 -8.46875 1.703125 -8.546875 1.921875 -8.546875 C 2.148438 -8.546875 2.335938 -8.46875 2.484375 -8.3125 C 2.628906 -8.164062 2.703125 -7.984375 2.703125 -7.765625 L 2.703125 -3.421875 C 2.703125 -1.992188 3.375 -1.28125 4.71875 -1.28125 C 5.375 -1.28125 5.875 -1.457031 6.21875 -1.8125 C 6.570312 -2.175781 6.75 -2.710938 6.75 -3.421875 L 6.75 -7.765625 C 6.75 -7.984375 6.820312 -8.164062 6.96875 -8.3125 C 7.113281 -8.46875 7.296875 -8.546875 7.515625 -8.546875 Z M 7.515625 -8.546875 "/></g></g></g><g fill="#ffffff" fill-opacity="1"><g transform="translate(184.545771, 229.624672)"><g><path d="M 3.46875 -7.03125 L 3.46875 -2.171875 C 3.46875 -1.628906 3.710938 -1.359375 4.203125 -1.359375 C 4.285156 -1.359375 4.390625 -1.375 4.515625 -1.40625 C 4.648438 -1.445312 4.753906 -1.46875 4.828125 -1.46875 C 4.972656 -1.46875 5.09375 -1.40625 5.1875 -1.28125 C 5.28125 -1.164062 5.328125 -1.015625 5.328125 -0.828125 C 5.328125 -0.597656 5.195312 -0.398438 4.9375 -0.234375 C 4.675781 -0.078125 4.382812 0 4.0625 0 C 3.707031 0 3.378906 -0.0351562 3.078125 -0.109375 C 2.773438 -0.191406 2.503906 -0.382812 2.265625 -0.6875 C 2.035156 -1 1.921875 -1.472656 1.921875 -2.109375 L 1.921875 -7.03125 L 0.984375 -7.03125 C 0.773438 -7.03125 0.601562 -7.097656 0.46875 -7.234375 C 0.332031 -7.367188 0.265625 -7.539062 0.265625 -7.75 C 0.265625 -7.957031 0.332031 -8.125 0.46875 -8.25 C 0.601562 -8.382812 0.773438 -8.453125 0.984375 -8.453125 L 1.921875 -8.453125 L 1.921875 -9.8125 C 1.921875 -10.03125 1.992188 -10.21875 2.140625 -10.375 C 2.285156 -10.53125 2.472656 -10.609375 2.703125 -10.609375 C 2.921875 -10.609375 3.101562 -10.53125 3.25 -10.375 C 3.394531 -10.21875 3.46875 -10.03125 3.46875 -9.8125 L 3.46875 -8.453125 L 4.828125 -8.453125 C 5.035156 -8.453125 5.207031 -8.382812 5.34375 -8.25 C 5.476562 -8.113281 5.546875 -7.941406 5.546875 -7.734375 C 5.546875 -7.523438 5.476562 -7.351562 5.34375 -7.21875 C 5.207031 -7.09375 5.035156 -7.03125 4.828125 -7.03125 Z M 3.46875 -7.03125 "/></g></g></g><g fill="#ffffff" fill-opacity="1"><g transform="translate(201.372224, 229.624672)"><g><path d="M 2.625 -0.78125 C 2.625 -0.5625 2.550781 -0.375 2.40625 -0.21875 C 2.257812 -0.0703125 2.070312 0 1.84375 0 C 1.625 0 1.441406 -0.0703125 1.296875 -0.21875 C 1.148438 -0.375 1.078125 -0.5625 1.078125 -0.78125 L 1.078125 -7.84375 C 1.078125 -8.0625 1.148438 -8.242188 1.296875 -8.390625 C 1.441406 -8.546875 1.625 -8.625 1.84375 -8.625 C 2.070312 -8.625 2.257812 -8.546875 2.40625 -8.390625 C 2.550781 -8.242188 2.625 -8.0625 2.625 -7.84375 Z M 1.84375 -9.703125 C 1.53125 -9.703125 1.304688 -9.757812 1.171875 -9.875 C 1.035156 -9.988281 0.96875 -10.171875 0.96875 -10.421875 L 0.96875 -10.6875 C 0.96875 -10.945312 1.039062 -11.128906 1.1875 -11.234375 C 1.332031 -11.347656 1.554688 -11.40625 1.859375 -11.40625 C 2.171875 -11.40625 2.394531 -11.347656 2.53125 -11.234375 C 2.664062 -11.117188 2.734375 -10.9375 2.734375 -10.6875 L 2.734375 -10.421875 C 2.734375 -10.160156 2.660156 -9.972656 2.515625 -9.859375 C 2.378906 -9.753906 2.15625 -9.703125 1.84375 -9.703125 Z M 1.84375 -9.703125 "/></g></g></g><g fill="#ffffff" fill-opacity="1"><g transform="translate(215.704655, 229.624672)"><g><path d="M 9.25 -4.28125 C 9.25 -3.425781 9.054688 -2.660156 8.671875 -1.984375 C 8.296875 -1.316406 7.78125 -0.789062 7.125 -0.40625 C 6.46875 -0.03125 5.738281 0.15625 4.9375 0.15625 C 4.144531 0.15625 3.421875 -0.03125 2.765625 -0.40625 C 2.109375 -0.789062 1.585938 -1.316406 1.203125 -1.984375 C 0.828125 -2.660156 0.640625 -3.425781 0.640625 -4.28125 C 0.640625 -5.125 0.828125 -5.890625 1.203125 -6.578125 C 1.585938 -7.265625 2.109375 -7.796875 2.765625 -8.171875 C 3.421875 -8.554688 4.144531 -8.75 4.9375 -8.75 C 5.738281 -8.75 6.46875 -8.554688 7.125 -8.171875 C 7.78125 -7.796875 8.296875 -7.265625 8.671875 -6.578125 C 9.054688 -5.890625 9.25 -5.125 9.25 -4.28125 Z M 7.703125 -4.28125 C 7.703125 -4.863281 7.578125 -5.382812 7.328125 -5.84375 C 7.085938 -6.3125 6.753906 -6.671875 6.328125 -6.921875 C 5.910156 -7.179688 5.445312 -7.3125 4.9375 -7.3125 C 4.425781 -7.3125 3.960938 -7.179688 3.546875 -6.921875 C 3.128906 -6.671875 2.796875 -6.3125 2.546875 -5.84375 C 2.304688 -5.382812 2.1875 -4.863281 2.1875 -4.28125 C 2.1875 -3.695312 2.304688 -3.175781 2.546875 -2.71875 C 2.796875 -2.269531 3.128906 -1.914062 3.546875 -1.65625 C 3.960938 -1.394531 4.425781 -1.265625 4.9375 -1.265625 C 5.445312 -1.265625 5.910156 -1.394531 6.328125 -1.65625 C 6.753906 -1.914062 7.085938 -2.269531 7.328125 -2.71875 C 7.578125 -3.175781 7.703125 -3.695312 7.703125 -4.28125 Z M 7.703125 -4.28125 "/></g></g></g><g fill="#ffffff" fill-opacity="1"><g transform="translate(236.21511, 229.624672)"><g><path d="M 5.515625 -8.75 C 7.472656 -8.75 8.453125 -7.570312 8.453125 -5.21875 L 8.453125 -0.78125 C 8.453125 -0.5625 8.378906 -0.375 8.234375 -0.21875 C 8.085938 -0.0703125 7.898438 0 7.671875 0 C 7.453125 0 7.269531 -0.0703125 7.125 -0.21875 C 6.976562 -0.375 6.90625 -0.5625 6.90625 -0.78125 L 6.90625 -5.203125 C 6.90625 -5.847656 6.753906 -6.359375 6.453125 -6.734375 C 6.160156 -7.117188 5.6875 -7.3125 5.03125 -7.3125 C 4.59375 -7.3125 4.195312 -7.210938 3.84375 -7.015625 C 3.488281 -6.828125 3.207031 -6.570312 3 -6.25 C 2.800781 -5.9375 2.703125 -5.585938 2.703125 -5.203125 L 2.703125 -0.78125 C 2.703125 -0.5625 2.628906 -0.375 2.484375 -0.21875 C 2.335938 -0.0703125 2.148438 0 1.921875 0 C 1.691406 0 1.503906 -0.0703125 1.359375 -0.21875 C 1.222656 -0.363281 1.15625 -0.550781 1.15625 -0.78125 L 1.15625 -7.765625 C 1.15625 -7.984375 1.226562 -8.164062 1.375 -8.3125 C 1.519531 -8.46875 1.703125 -8.546875 1.921875 -8.546875 C 2.148438 -8.546875 2.335938 -8.46875 2.484375 -8.3125 C 2.628906 -8.164062 2.703125 -7.984375 2.703125 -7.765625 L 2.703125 -7.1875 C 2.984375 -7.625 3.378906 -7.992188 3.890625 -8.296875 C 4.398438 -8.597656 4.941406 -8.75 5.515625 -8.75 Z M 5.515625 -8.75 "/></g></g></g><g fill="#ffffff" fill-opacity="1"><g transform="translate(256.448446, 229.624672)"><g><path d="M 0.671875 -1.34375 C 0.566406 -1.488281 0.515625 -1.632812 0.515625 -1.78125 C 0.515625 -2 0.628906 -2.179688 0.859375 -2.328125 C 0.972656 -2.410156 1.097656 -2.453125 1.234375 -2.453125 C 1.429688 -2.453125 1.613281 -2.367188 1.78125 -2.203125 C 2.101562 -1.828125 2.453125 -1.546875 2.828125 -1.359375 C 3.203125 -1.179688 3.648438 -1.09375 4.171875 -1.09375 C 4.585938 -1.101562 4.953125 -1.195312 5.265625 -1.375 C 5.578125 -1.550781 5.734375 -1.84375 5.734375 -2.25 C 5.734375 -2.625 5.570312 -2.90625 5.25 -3.09375 C 4.9375 -3.289062 4.46875 -3.472656 3.84375 -3.640625 C 3.238281 -3.796875 2.734375 -3.960938 2.328125 -4.140625 C 1.929688 -4.328125 1.59375 -4.59375 1.3125 -4.9375 C 1.03125 -5.28125 0.890625 -5.726562 0.890625 -6.28125 C 0.890625 -6.769531 1.03125 -7.195312 1.3125 -7.5625 C 1.59375 -7.9375 1.960938 -8.226562 2.421875 -8.4375 C 2.878906 -8.644531 3.382812 -8.75 3.9375 -8.75 C 4.457031 -8.75 4.972656 -8.648438 5.484375 -8.453125 C 6.003906 -8.253906 6.425781 -7.953125 6.75 -7.546875 C 6.882812 -7.398438 6.953125 -7.242188 6.953125 -7.078125 C 6.953125 -6.898438 6.863281 -6.734375 6.6875 -6.578125 C 6.582031 -6.472656 6.445312 -6.421875 6.28125 -6.421875 C 6.082031 -6.421875 5.925781 -6.488281 5.8125 -6.625 C 5.582031 -6.882812 5.300781 -7.082031 4.96875 -7.21875 C 4.632812 -7.363281 4.265625 -7.4375 3.859375 -7.4375 C 3.453125 -7.4375 3.101562 -7.351562 2.8125 -7.1875 C 2.519531 -7.019531 2.375 -6.734375 2.375 -6.328125 C 2.382812 -5.953125 2.550781 -5.671875 2.875 -5.484375 C 3.195312 -5.296875 3.691406 -5.113281 4.359375 -4.9375 C 4.929688 -4.789062 5.40625 -4.628906 5.78125 -4.453125 C 6.164062 -4.273438 6.488281 -4.015625 6.75 -3.671875 C 7.007812 -3.335938 7.140625 -2.890625 7.140625 -2.328125 C 7.140625 -1.816406 6.992188 -1.375 6.703125 -1 C 6.410156 -0.625 6.023438 -0.335938 5.546875 -0.140625 C 5.078125 0.0546875 4.578125 0.15625 4.046875 0.15625 C 3.359375 0.15625 2.722656 0.0390625 2.140625 -0.1875 C 1.554688 -0.425781 1.066406 -0.8125 0.671875 -1.34375 Z M 0.671875 -1.34375 "/></g></g></g></svg>